<svg width="417" height="357" viewBox="0 0 417 357" fill="none" xmlns="http://www.w3.org/2000/svg">
<g id="123">
<rect id="Rectangle 394" width="417" height="357" fill="#1BCC73"/>
<g id="cow:)">
<g id="body">
<g id="Group 350">
<g id="Vector">
<path d="M222.459 263.278L219.829 253.634C226.527 250.737 231.226 246.621 231.226 246.621C231.226 246.621 231.226 255.388 239.993 263.278L231.226 272.045L229.473 285.195C229.704 285.282 229.93 285.37 230.151 285.459C233.227 286.698 235.389 288.152 238.239 291.332C239.532 293.846 240.001 295.331 239.993 298.345L233.856 299.222L225.089 298.345V292.208C223.649 288.444 221.973 287.303 218.076 286.948V283.441L221.583 279.058C224.213 274.675 224.167 267.512 222.459 263.278Z" fill="#00FF19" fill-opacity="0.78"/>
<path d="M219.829 253.634L219.631 253.176L219.233 253.348L219.347 253.766L219.829 253.634ZM222.459 263.278L221.977 263.409L221.985 263.438L221.996 263.465L222.459 263.278ZM221.583 279.058L221.973 279.37L221.994 279.344L222.011 279.315L221.583 279.058ZM218.076 283.441L217.685 283.129L217.576 283.266V283.441H218.076ZM218.076 286.948H217.576V287.405L218.031 287.446L218.076 286.948ZM225.089 298.345H224.589V298.797L225.04 298.842L225.089 298.345ZM233.856 299.222L233.806 299.719L233.867 299.725L233.927 299.717L233.856 299.222ZM239.993 298.345L240.064 298.84L240.492 298.779L240.493 298.346L239.993 298.345ZM238.239 291.332L238.684 291.103L238.655 291.046L238.612 290.998L238.239 291.332ZM229.473 285.195L228.977 285.129L228.925 285.522L229.296 285.662L229.473 285.195ZM231.226 272.045L230.873 271.691L230.753 271.811L230.73 271.979L231.226 272.045ZM239.993 263.278L240.346 263.631L240.719 263.259L240.327 262.906L239.993 263.278ZM231.226 246.621H231.726C231.726 246.425 231.611 246.247 231.433 246.166C231.254 246.085 231.044 246.116 230.897 246.245L231.226 246.621ZM219.347 253.766L221.977 263.409L222.942 263.146L220.312 253.503L219.347 253.766ZM221.996 263.465C222.818 265.504 223.25 268.28 223.148 271.094C223.046 273.91 222.411 276.705 221.154 278.801L222.011 279.315C223.384 277.028 224.042 274.05 224.147 271.13C224.253 268.208 223.809 265.287 222.923 263.091L221.996 263.465ZM221.192 278.746L217.685 283.129L218.466 283.754L221.973 279.37L221.192 278.746ZM217.576 283.441V286.948H218.576V283.441H217.576ZM218.031 287.446C219.946 287.621 221.231 287.983 222.207 288.702C223.182 289.42 223.917 290.543 224.622 292.387L225.556 292.03C224.822 290.11 223.998 288.78 222.8 287.897C221.605 287.016 220.102 286.631 218.121 286.45L218.031 287.446ZM224.589 292.208V298.345H225.589V292.208H224.589ZM225.04 298.842L233.806 299.719L233.906 298.724L225.139 297.847L225.04 298.842ZM233.927 299.717L240.064 298.84L239.922 297.85L233.785 298.727L233.927 299.717ZM240.493 298.346C240.497 296.813 240.38 295.642 240.087 294.524C239.796 293.41 239.336 292.372 238.684 291.103L237.795 291.56C238.435 292.805 238.856 293.767 239.12 294.777C239.383 295.785 239.497 296.864 239.493 298.344L240.493 298.346ZM238.612 290.998C235.714 287.766 233.49 286.265 230.338 284.996L229.964 285.923C232.963 287.131 235.063 288.538 237.867 291.665L238.612 290.998ZM230.338 284.996C230.113 284.905 229.884 284.816 229.65 284.727L229.296 285.662C229.524 285.749 229.747 285.835 229.964 285.923L230.338 284.996ZM229.968 285.261L231.722 272.111L230.73 271.979L228.977 285.129L229.968 285.261ZM231.58 272.398L240.346 263.631L239.639 262.924L230.873 271.691L231.58 272.398ZM225.489 292.508L230.551 285.759L229.751 285.159L224.689 291.908L225.489 292.508ZM230.551 285.759L230.749 285.495L229.949 284.895L229.751 285.159L230.551 285.759ZM231.226 246.621C230.726 246.621 230.726 246.621 230.726 246.622C230.726 246.622 230.726 246.622 230.726 246.622C230.726 246.623 230.726 246.624 230.726 246.625C230.726 246.626 230.726 246.629 230.726 246.631C230.726 246.637 230.726 246.645 230.726 246.654C230.727 246.674 230.727 246.702 230.728 246.738C230.731 246.809 230.735 246.913 230.744 247.047C230.762 247.314 230.798 247.7 230.868 248.186C231.009 249.158 231.29 250.531 231.849 252.154C232.969 255.4 235.204 259.64 239.658 263.65L240.327 262.906C236.015 259.025 233.867 254.937 232.795 251.828C232.258 250.272 231.991 248.961 231.858 248.042C231.791 247.583 231.758 247.223 231.742 246.98C231.734 246.858 231.73 246.766 231.728 246.705C231.727 246.675 231.726 246.653 231.726 246.639C231.726 246.631 231.726 246.626 231.726 246.624C231.726 246.622 231.726 246.621 231.726 246.621C231.726 246.621 231.726 246.62 231.726 246.621C231.726 246.621 231.726 246.621 231.726 246.621C231.726 246.621 231.726 246.621 231.226 246.621ZM220.028 254.093C223.415 252.628 226.293 250.856 228.324 249.453C229.34 248.75 230.145 248.139 230.697 247.702C230.974 247.483 231.187 247.308 231.332 247.187C231.404 247.127 231.459 247.08 231.497 247.048C231.516 247.032 231.53 247.019 231.54 247.011C231.545 247.007 231.548 247.003 231.551 247.001C231.552 247 231.553 246.999 231.554 246.998C231.555 246.998 231.555 246.998 231.555 246.998C231.555 246.998 231.555 246.997 231.555 246.997C231.555 246.997 231.556 246.997 231.226 246.621C230.897 246.245 230.897 246.245 230.897 246.245C230.897 246.245 230.897 246.245 230.897 246.245C230.897 246.245 230.896 246.245 230.896 246.245C230.896 246.246 230.895 246.246 230.894 246.247C230.892 246.249 230.889 246.251 230.885 246.255C230.877 246.262 230.864 246.273 230.847 246.288C230.812 246.318 230.76 246.362 230.691 246.42C230.552 246.535 230.346 246.705 230.077 246.917C229.539 247.343 228.751 247.941 227.755 248.63C225.762 250.008 222.942 251.743 219.631 253.176L220.028 254.093Z" fill="black"/>
</g>
</g>
<g id="Group 351">
<g id="Vector_2">
<path d="M119.279 279.531C119.279 279.531 121.905 274.601 121.032 269.888C120.157 265.167 116.165 261.809 114.626 260.67C116.442 257.634 118.402 254.984 118.402 254.984C118.402 254.984 121.392 251.229 124.133 248.375L129.799 253.231V269.011L136.812 283.038L140.319 285.668L143.825 290.928C143.825 290.928 140.227 292.963 137.689 293.558C134.355 294.339 128.922 293.558 128.922 293.558L128.045 287.421C127.169 280.408 121.909 280.408 119.279 279.531Z" fill="#467D00"/>
<path d="M128.045 287.421C127.169 280.408 121.909 280.408 119.279 279.531C119.279 279.531 121.905 274.601 121.032 269.888C120.157 265.167 116.165 261.809 114.626 260.67C116.442 257.634 118.402 254.984 118.402 254.984C118.402 254.984 121.392 251.229 124.133 248.375L129.799 253.231V269.011L136.812 283.038M128.045 287.421L128.922 293.558C128.922 293.558 134.355 294.339 137.689 293.558C140.227 292.963 143.825 290.928 143.825 290.928L140.319 285.668L136.812 283.038M128.045 287.421L136.812 283.038" stroke="black"/>
</g>
</g>
<g id="Group 359">
<g id="Vector_3">
<path fill-rule="evenodd" clip-rule="evenodd" d="M61.1501 175.705C66.4458 174.884 73.4236 169.568 73.4236 169.568C77.4074 165.556 79.7359 155.126 81.66 146.509C81.84 145.703 82.0164 144.912 82.1903 144.144C84.1913 138.242 86.0851 135.234 89.535 129.755C89.9817 129.045 90.4546 128.294 90.9571 127.49C95.3405 120.477 102.354 116.965 116.381 109.954C127.16 98.543 133.812 103.182 140.649 107.95C143.264 109.774 145.907 111.617 148.818 112.587C155.122 114.689 159.233 114.969 164.099 115.3C166.572 115.469 169.239 115.65 172.488 116.091C176.065 116.576 179.089 117.251 181.947 117.889C187.292 119.083 192.059 120.148 198.788 119.598C207.289 118.902 210.638 117.356 212.933 116.296C214.425 115.608 215.472 115.124 217.198 115.214C219.208 115.319 221.955 116.434 225.27 117.779C229.186 119.369 233.893 121.28 239.115 122.228C245.621 123.409 254.895 116.091 254.895 116.091C258.527 119.292 260.855 120.534 266.292 121.351C265.826 141.386 268.345 153.095 280.319 171.324C265.416 182.723 265.299 199.167 265.416 218.662C264.758 229.886 258.594 234.25 252.605 238.49L252.265 238.73C252.011 256.872 253.668 267.943 256.649 286.071L248.884 293.961L247.882 292.208L244.375 291.331C245.862 278.94 245.362 272.849 240.869 264.154C237.162 262.444 233.678 258.533 231.225 247.497C227.12 251.603 216.492 255.789 213.346 257.028L213.344 257.029C213.133 257.112 212.955 257.182 212.815 257.238C198.38 263.004 190.348 260.851 177.467 257.398L176.871 257.238C171.77 255.872 168.461 253.863 165.18 251.871C161.992 249.935 158.83 248.016 154.078 246.718C143.707 243.887 137.416 243.425 126.901 250.222C116.385 257.019 111.971 262.834 104.984 273.016C104.505 273.714 104.059 274.323 103.64 274.895C102.461 276.503 101.496 277.821 100.601 280.029L100.524 280.218C99.2552 283.346 98.4226 285.399 98.8472 288.796C99.1158 290.945 100.601 294.056 100.601 294.056C99.0951 293.316 92.7348 297.355 90.9571 301.072C90.9059 295.509 86.5474 293.89 84.3251 293.065C83.4894 292.754 82.9558 292.556 83.067 292.303C90.6071 290.202 98.8472 263.375 96.2172 231.812C95.7946 226.741 95.3173 221.89 94.8554 217.197C92.2897 191.122 90.1994 169.88 100.601 142.391C105.173 130.308 118.134 114.337 118.134 114.337C118.134 114.337 97.0938 123.981 90.0804 135.378C83.067 146.775 79.5603 170.445 79.5603 170.445C79.5603 170.445 78.6836 177.458 73.4236 187.102C68.1635 196.745 64.6568 198.498 64.6568 198.498L68.1635 193.238L70.7936 187.101C70.7936 187.101 67.9844 191.679 65.5335 193.238C62.7933 194.982 58.5201 194.992 58.5201 194.992L65.5335 189.732C65.5335 189.732 60.4666 191.485 57.6434 191.485C54.8202 191.485 50.63 189.732 50.63 189.732C52.974 189.397 54.6785 189.318 56.1344 189.25C58.4899 189.141 60.1944 189.062 62.9035 187.978C64.757 187.237 67.2869 185.348 67.2869 185.348C67.2869 185.348 61.5598 184.985 56.7668 184.471C51.9737 183.958 48 179.211 48 179.211C48 179.211 52.738 180.799 55.8901 180.965C58.986 181.127 63.7802 180.088 63.7802 180.088C63.7802 180.088 58.437 179.362 55.0134 178.335C51.5898 177.308 50.63 174.828 50.63 174.828C50.63 174.828 57.0761 176.336 61.1501 175.705Z" fill="#8FFF00"/>
<path d="M104.107 298.439C102.958 296.572 100.601 294.056 100.601 294.056C99.0951 293.316 92.7348 297.355 90.9571 301.072V307.206C90.9571 307.206 96.9423 308.1 100.601 307.206C103.133 306.587 106.737 304.576 106.737 304.576C106.737 304.576 105.474 300.66 104.107 298.439Z" fill="#620DF8"/>
<path d="M263.662 292.208L256.649 286.071L248.884 293.961L251.389 298.344L259.279 300.098L266.292 299.221L263.662 292.208Z" fill="#5B5C6C"/>
<path d="M252.265 238.73C254.048 224.119 255.651 216.493 261.032 205.417M252.265 238.73C252.011 256.872 253.668 267.943 256.649 286.071M252.265 238.73C252.379 238.65 252.492 238.57 252.605 238.49M252.265 238.73L252.605 238.49M176.871 257.238C171.77 255.872 168.461 253.863 165.18 251.871C161.992 249.935 158.83 248.016 154.078 246.718C143.707 243.887 137.416 243.425 126.901 250.222C116.385 257.019 111.971 262.834 104.984 273.016C104.505 273.714 104.059 274.323 103.64 274.895C102.461 276.503 101.496 277.821 100.601 280.029M176.871 257.238C177.071 257.292 177.27 257.345 177.467 257.398M176.871 257.238L177.467 257.398M100.601 280.029L100.524 280.218M100.601 280.029C100.575 280.093 100.549 280.155 100.524 280.218M100.601 294.056C100.601 294.056 99.1158 290.945 98.8472 288.796C98.4226 285.399 99.2552 283.346 100.524 280.218M100.601 294.056C100.601 294.056 102.958 296.572 104.107 298.439C105.474 300.66 106.737 304.576 106.737 304.576C106.737 304.576 103.133 306.587 100.601 307.206C96.9423 308.1 90.9571 307.206 90.9571 307.206M100.601 294.056C99.0951 293.316 92.7348 297.355 90.9571 301.072M90.9571 307.206C90.9571 307.206 90.9571 303.469 90.9571 301.072M90.9571 307.206V301.072M90.9571 301.072C90.9059 295.509 86.5474 293.89 84.3251 293.065C83.4894 292.754 82.9558 292.556 83.067 292.303C90.6071 290.202 98.8472 263.375 96.2172 231.812C95.7946 226.741 95.3173 221.89 94.8554 217.197C92.2897 191.122 90.1994 169.88 100.601 142.391C105.173 130.308 118.134 114.337 118.134 114.337C118.134 114.337 97.0938 123.981 90.0804 135.378C83.067 146.775 79.5603 170.445 79.5603 170.445C79.5603 170.445 78.6836 177.458 73.4236 187.102C68.1635 196.745 64.6568 198.498 64.6568 198.498L68.1635 193.238L70.7936 187.101C70.7936 187.101 67.9844 191.679 65.5335 193.238C62.7933 194.982 58.5201 194.992 58.5201 194.992L65.5335 189.732C65.5335 189.732 60.4666 191.485 57.6434 191.485C54.8202 191.485 50.63 189.732 50.63 189.732C52.974 189.397 54.6785 189.318 56.1344 189.25C58.4899 189.141 60.1944 189.062 62.9035 187.978C64.757 187.237 67.2869 185.348 67.2869 185.348C67.2869 185.348 61.5598 184.985 56.7668 184.471C51.9737 183.958 48 179.211 48 179.211C48 179.211 52.738 180.799 55.8901 180.965C58.986 181.127 63.7802 180.088 63.7802 180.088C63.7802 180.088 58.437 179.362 55.0134 178.335C51.5898 177.308 50.63 174.828 50.63 174.828C50.63 174.828 57.0761 176.336 61.1501 175.705C66.4458 174.884 73.4236 169.568 73.4236 169.568C77.4074 165.556 79.7359 155.126 81.66 146.509C81.84 145.703 82.0164 144.912 82.1903 144.144C84.1913 138.242 86.0851 135.234 89.535 129.755C89.9817 129.045 90.4546 128.294 90.9571 127.49C95.3405 120.477 102.354 116.965 116.381 109.954C127.16 98.543 133.812 103.182 140.649 107.95C143.264 109.774 145.907 111.617 148.818 112.587C155.122 114.689 159.233 114.969 164.099 115.3C166.572 115.469 169.239 115.65 172.488 116.091C176.065 116.576 179.089 117.251 181.947 117.889C187.292 119.083 192.059 120.148 198.788 119.598C207.289 118.902 210.638 117.356 212.933 116.296C214.425 115.608 215.472 115.124 217.198 115.214C219.208 115.319 221.955 116.434 225.27 117.779C229.186 119.369 233.893 121.28 239.115 122.228C245.621 123.409 254.895 116.091 254.895 116.091C258.527 119.292 260.855 120.534 266.292 121.351C265.826 141.386 268.345 153.095 280.319 171.324C265.416 182.723 265.299 199.167 265.416 218.662C264.758 229.886 258.594 234.25 252.605 238.49M231.225 247.497C233.678 258.533 237.162 262.444 240.869 264.154C245.362 272.849 245.862 278.94 244.375 291.331L247.882 292.208L248.884 293.961M231.225 247.497C233.63 233.966 232.759 226.46 226.842 213.307M231.225 247.497C227.12 251.603 216.492 255.789 213.346 257.028L213.344 257.029C213.133 257.112 212.955 257.182 212.815 257.238C198.38 263.004 190.348 260.851 177.467 257.398M256.649 286.071L263.662 292.208L266.292 299.221L259.279 300.098L251.389 298.344L248.884 293.961M256.649 286.071L248.884 293.961" stroke="black"/>
</g>
<g id="Group 355">
<path id="Vector 50" d="M110.781 169.514C110.781 169.514 104.303 172.155 102.015 175.651C98.6397 180.807 97.0188 187.823 102.015 191.431C105.623 194.037 110.348 188.202 113.411 191.431C115.584 193.721 112.933 197.089 115.165 199.321C118.321 202.478 126.562 201.184 126.562 198.445V191.431C126.562 188.692 129.405 187.42 131.822 187.925C134.685 188.522 131.534 194.723 134.452 194.938C136.638 195.099 137.938 193.431 138.835 191.431C140.164 188.468 135.555 186.723 136.205 183.541C136.837 180.449 141.663 180.555 141.465 177.404C141.298 174.754 139.382 173.568 137.129 172.174L137.082 172.144C133.297 169.802 129.588 174.283 125.685 172.144C121.77 170 123.959 163.189 119.548 162.501C115.216 161.826 110.781 169.514 110.781 169.514Z" fill="#FF00C7" stroke="black"/>
<path id="Vector 51" d="M246.379 128.644C244.407 134.017 241.087 133.86 239.543 132.41C237.999 130.96 232.494 134.44 232.123 138.999C231.858 142.253 234.06 144.771 235.847 145.591C238.903 146.992 239.244 149.316 238.487 155.005C237.447 162.819 247.816 168.046 249.576 160.654C250.857 155.276 252.72 153.965 257.468 153.121C260.607 152.563 263.25 143.219 261.165 138.999C260.101 136.846 256.43 135.894 255.913 128.644C255.395 121.394 248.351 123.271 246.379 128.644Z" fill="#FF00C7" stroke="black"/>
<path id="Vector 49" d="M183.655 139.793C164.961 138.907 139.561 142.362 140.984 157.309C141.862 166.524 155.682 167.004 159.584 175.701C165.449 188.773 143.879 198.429 151.926 210.734C162.889 227.499 192.812 226.927 212.102 215.989C230.542 205.533 233.658 188.708 227.42 171.322C221.073 153.631 206.609 140.881 183.655 139.793Z" fill="#FF0000" stroke="black"/>
</g>
</g>
</g>
<g id="footer">
<g id="Vector_4">
<path d="M129.938 274.39C122.479 275.614 126.779 265.839 125.555 265.227C125.555 265.227 123.36 264.134 122.048 263.279C119.606 261.688 116.382 258.423 116.382 258.423C116.821 257.966 117.252 257.533 117.665 257.142C131.982 243.554 142.498 243.115 143.088 243.115C156.238 243.115 163.79 251.492 164.6 251.882C163.778 257.668 162.382 259.889 152.732 265.032C152.732 265.032 154.756 270.791 153.608 272.922C152.797 274.429 151.453 274.85 150.102 273.799C149.497 273.329 149.567 272.73 149.225 272.046C148.354 273.157 143.965 275.552 143.965 268.539C139.033 269.983 137.926 269.341 134.321 268.539C134.958 270.874 134.973 276.702 132.568 276.429C129.507 276.081 129.938 274.39 129.938 274.39Z" fill="#00FFD1"/>
<path d="M129.938 274.39V267.662C128.569 267.054 127.844 266.371 125.555 265.227M129.938 274.39C122.479 275.614 126.779 265.839 125.555 265.227M129.938 274.39C129.938 274.39 129.507 276.081 132.568 276.429C134.973 276.702 134.958 270.874 134.321 268.539C137.926 269.341 139.033 269.983 143.965 268.539M125.555 265.227C125.555 265.227 123.36 264.134 122.048 263.279C119.606 261.688 116.382 258.423 116.382 258.423C116.821 257.966 117.252 257.533 117.665 257.142C131.982 243.554 142.498 243.115 143.088 243.115C156.238 243.115 163.79 251.492 164.6 251.882C163.778 257.668 162.382 259.889 152.732 265.032C152.732 265.032 154.756 270.791 153.608 272.922C152.797 274.429 151.453 274.85 150.102 273.799C149.497 273.329 149.567 272.73 149.225 272.046M143.965 268.539C143.965 275.552 148.354 273.157 149.225 272.046M143.965 268.539C145.718 268.393 148.348 266.785 148.348 266.785C148.348 266.785 148.54 269.991 149.225 272.046" stroke="#FF478E"/>
</g>
</g>
<g id="header">
<g id="Vector_5">
<path d="M277.519 171.37H271.382C271.382 171.37 262.827 170.261 260.862 166.11C259.244 162.692 260.788 160.126 261.738 156.466C263.719 148.837 267.288 145.094 273.135 139.809C276.236 137.007 278.193 135.599 281.902 133.673C289.946 129.495 295.645 128.781 304.695 129.289C309.924 129.583 313.121 129.659 317.846 131.919C325.284 135.477 329.939 139.684 331.872 147.699C332.836 151.693 333.315 154.373 331.872 158.22C328.967 165.966 312.586 166.986 312.586 166.986C312.718 167.53 305.333 176.718 298.559 178.383C288.519 180.851 276.423 172.384 277.519 171.37Z" fill="#BCEA73"/>
<path d="M277.519 171.37H271.382C271.382 171.37 262.827 170.261 260.862 166.11C259.244 162.692 260.788 160.126 261.738 156.466C263.719 148.837 267.288 145.094 273.135 139.809C276.236 137.007 278.193 135.599 281.902 133.673C289.946 129.495 295.645 128.781 304.695 129.289C309.924 129.583 313.121 129.659 317.846 131.919C325.284 135.477 329.939 139.684 331.872 147.699C332.836 151.693 333.315 154.373 331.872 158.22C328.967 165.966 312.586 166.986 312.586 166.986M277.519 171.37C276.423 172.384 288.519 180.851 298.559 178.383C305.333 176.718 312.718 167.53 312.586 166.986M277.519 171.37C291.576 171.183 299.537 170.315 312.586 166.986M316.092 153.836C314.171 155.905 311.747 156.511 309.079 155.589C306.551 154.716 305.42 152.903 304.695 150.329C303.185 144.965 309.448 139.89 314.339 139.81M274.888 144.191C275.74 143.314 282.35 145.323 284.532 147.7C291.294 155.067 279.068 165.26 273.135 160.848" stroke="black"/>
</g>
<g id="Vector_6">
<path d="M326.574 137.814L326.784 137.914C323.489 125.523 312.066 108.107 326.784 108.107C341.502 108.107 344.18 108.522 353.502 103.5C365.832 96.8573 370.842 88.1249 375.001 74.7936C375.001 74.7936 361.545 76.6777 354.837 72.1636C348.129 67.6494 338.181 73.9169 334.674 75.6703C331.167 77.4236 322.4 78.3003 320.647 73.9169C316.508 67.5841 311.87 64.631 300.483 66.0268C303.125 62.5706 300.483 52 300.483 52C300.483 52 302.237 59.8901 293.47 65.1502C296.012 60.2376 295.501 57.8314 293.47 53.7534C292.708 59.0823 290.133 61.9819 286.457 65.1502C288.572 59.0134 289.087 52.8767 289.087 52.8767L282.95 60.3284L276.813 67.7802C276.813 67.7802 270.143 75.3923 264.54 78.3003C260.696 80.2952 260.677 79.8441 254.02 81.807C243.763 83.8735 241.485 82.6332 231.226 80.9303C223.457 81.4389 220.616 83.1761 217.199 87.9437C212.545 94.1519 209.667 96.6544 204.049 98.4638C198.432 100.273 193.529 98.4638 193.529 98.4638L202.296 108.984C210.442 115.221 216.01 117.902 225.966 120.381C233.636 122.29 238.578 124.468 246.13 122.134C251.122 120.591 253.076 117.175 257.526 115.121C261.41 113.256 262.899 113.646 263.663 118.627C265.414 133.011 265.076 139.315 263.663 153.694C266.763 150.892 272.43 140.544 282.95 134.408C290.78 129.84 296.693 129.515 305.744 130.024C310.897 130.314 321.739 135.501 326.574 137.814Z" fill="#BCEA73"/>
<path d="M336.917 80.0537C336.917 80.0537 343.866 81.4197 347.824 81.807C352.935 82.3072 360.974 80.9303 360.974 80.9303C360.974 80.9303 355.977 88.3732 352.207 91.4504C348.438 94.5277 339.934 97.5872 339.934 97.5872M245.253 108.107C239.823 108.569 234.03 115.741 225.966 112.491C223.486 111.491 211.062 106.354 211.062 106.354C211.062 106.354 225.057 97.6993 230.057 88.8204M249.636 87.9437C247.082 89.6408 243.499 89.6971 239.115 89.6971C234.732 89.6971 230.057 88.8204 230.057 88.8204M225.966 87.9437L230.057 88.8204M202.296 108.984L193.529 98.4638C193.529 98.4638 198.432 100.273 204.049 98.4638C209.667 96.6544 212.545 94.1519 217.199 87.9437C220.616 83.1761 223.457 81.4389 231.226 80.9303C241.485 82.6332 243.763 83.8735 254.02 81.807C260.677 79.8441 260.696 80.2952 264.54 78.3003C270.143 75.3923 276.813 67.7802 276.813 67.7802L282.95 60.3284L289.087 52.8767C289.087 52.8767 288.572 59.0134 286.457 65.1502C290.133 61.9819 292.708 59.0823 293.47 53.7534C295.501 57.8314 296.012 60.2376 293.47 65.1502C302.237 59.8901 300.483 52 300.483 52C300.483 52 303.125 62.5706 300.483 66.0268C311.87 64.631 316.508 67.5841 320.647 73.9169C322.4 78.3003 331.167 77.4236 334.674 75.6703C338.181 73.9169 348.129 67.6494 354.837 72.1636C361.545 76.6777 375.001 74.7936 375.001 74.7936C370.842 88.1249 365.832 96.8573 353.502 103.5C344.18 108.522 341.502 108.107 326.784 108.107C312.066 108.107 323.489 125.523 326.784 137.914C322.059 135.654 310.972 130.318 305.744 130.024C296.693 129.515 290.78 129.84 282.95 134.408C272.43 140.544 266.763 150.892 263.663 153.694C265.076 139.315 265.414 133.011 263.663 118.627C262.899 113.646 261.41 113.256 257.526 115.121C253.076 117.175 251.122 120.591 246.13 122.134C238.578 124.468 233.636 122.29 225.966 120.381C216.01 117.902 210.442 115.221 202.296 108.984Z" stroke="black"/>
</g>
<g id="Group 360">
<g id="Vector_7">
<path fill-rule="evenodd" clip-rule="evenodd" d="M278.728 105.419C278.728 105.419 266.609 107.641 263.825 104.543C260.613 100.969 261.804 96.1027 264.702 92.2694C265.706 90.9409 266.905 89.6605 268.209 88.7025C267.151 99.4032 270.007 99.5025 278.346 94.0227C278.648 95.5074 278.728 96.6527 278.728 96.6527V105.419Z" fill="white"/>
<path d="M268.209 88.7025C267.151 99.4032 270.007 99.5025 278.346 94.0227C278.085 92.7378 277.658 91.1986 276.975 89.9276C272.998 92.78 271.498 92.1777 269.962 87.6583C269.362 87.9304 268.776 88.286 268.209 88.7025Z" fill="#A6DFFF"/>
<path d="M276.975 89.9276C276.516 89.0729 275.941 88.3394 275.222 87.886C273.478 86.7861 271.669 86.8837 269.962 87.6583C271.498 92.1777 272.998 92.78 276.975 89.9276Z" fill="#FF7C7C"/>
<path d="M278.346 94.0227C278.648 95.5074 278.728 96.6527 278.728 96.6527V105.419C278.728 105.419 266.609 107.641 263.825 104.543C260.613 100.969 261.804 96.1027 264.702 92.2694C265.706 90.9409 266.905 89.6605 268.209 88.7025M278.346 94.0227C270.007 99.5025 267.151 99.4032 268.209 88.7025M278.346 94.0227C278.085 92.7378 277.658 91.1986 276.975 89.9276M268.209 88.7025C268.776 88.286 269.362 87.9304 269.962 87.6583M276.975 89.9276C276.516 89.0729 275.941 88.3394 275.222 87.886C273.478 86.7861 271.669 86.8837 269.962 87.6583M276.975 89.9276C272.998 92.78 271.498 92.1777 269.962 87.6583" stroke="black"/>
</g>
<g id="Vector_8">
<path fill-rule="evenodd" clip-rule="evenodd" d="M302.237 103.666C302.237 103.666 314.356 105.887 317.14 102.789C320.352 99.2147 319.161 94.3488 316.263 90.5155C315.259 89.187 314.061 87.9066 312.757 86.9486C313.814 97.6493 310.958 97.7486 302.619 92.2688C302.317 93.7535 302.237 94.8988 302.237 94.8988V103.666Z" fill="white"/>
<path d="M312.757 86.9486C313.814 97.6493 310.958 97.7486 302.619 92.2688C302.88 90.9839 303.307 89.4447 303.99 88.1736C307.967 91.0261 309.467 90.4238 311.003 85.9044C311.603 86.1765 312.19 86.532 312.757 86.9486Z" fill="#A6DFFF"/>
<path d="M303.99 88.1736C304.449 87.319 305.024 86.5855 305.743 86.132C307.487 85.0322 309.296 85.1298 311.003 85.9044C309.467 90.4238 307.967 91.0261 303.99 88.1736Z" fill="#FF7C7C"/>
<path d="M302.619 92.2688C302.317 93.7535 302.237 94.8988 302.237 94.8988V103.666C302.237 103.666 314.356 105.887 317.14 102.789C320.352 99.2147 319.161 94.3488 316.263 90.5155C315.259 89.187 314.061 87.9066 312.757 86.9486M302.619 92.2688C310.958 97.7486 313.814 97.6493 312.757 86.9486M302.619 92.2688C302.88 90.9839 303.307 89.4447 303.99 88.1736M312.757 86.9486C312.19 86.532 311.603 86.1765 311.003 85.9044M303.99 88.1736C304.449 87.319 305.024 86.5855 305.743 86.132C307.487 85.0322 309.296 85.1298 311.003 85.9044M303.99 88.1736C307.967 91.0261 309.467 90.4238 311.003 85.9044" stroke="black"/>
</g>
</g>
<g id="Vector_9">
<path d="M270.508 114.7C270.508 114.7 264.371 119.084 253.851 112.07C244.57 106.732 245.627 95.0927 251.994 87.5714C252.347 87.1542 252.716 86.7497 253.101 86.3597C257.562 81.8393 264.102 79.2592 271.384 81.3868C285.172 84.3134 293.581 82.9683 309.081 78.7568C313.885 77.3533 318.366 77.9983 322.14 79.8976C326.537 82.8148 329.777 86.6469 329.777 86.6469C331.597 89.2847 332.811 92.2818 333.241 95.2738C334.031 100.764 332.185 106.237 326.615 109.44C324.341 110.956 322.272 111.94 320.426 112.55C313.729 114.764 309.958 112.07 309.958 112.07C302.912 105.731 298.098 100.666 295.544 96.4983C290.25 87.8577 294.673 83.0694 309.081 78.7568C293.581 82.9683 285.172 84.3134 271.384 81.3868C292.743 87.7797 292.159 95.218 270.508 114.7Z" fill="#FF0000"/>
<path d="M271.384 81.3868C292.743 87.7797 292.159 95.218 270.508 114.7C270.508 114.7 264.371 119.084 253.851 112.07C244.57 106.732 245.627 95.0927 251.994 87.5714C252.347 87.1542 252.716 86.7497 253.101 86.3597M271.384 81.3868C264.102 79.2592 257.562 81.8393 253.101 86.3597M271.384 81.3868C285.172 84.3134 293.581 82.9683 309.081 78.7568M309.081 78.7568C294.673 83.0694 290.25 87.8577 295.544 96.4983M309.081 78.7568C313.885 77.3533 318.366 77.9983 322.14 79.8976C326.537 82.8148 329.777 86.6469 329.777 86.6469C331.597 89.2847 332.811 92.2818 333.241 95.2738C334.031 100.764 332.185 106.237 326.615 109.44C324.341 110.956 322.272 111.94 320.426 112.55C313.729 114.764 309.958 112.07 309.958 112.07C302.912 105.731 298.098 100.666 295.544 96.4983M295.544 96.4983C291.772 92.0922 289.917 92.428 286.464 96.8836M253.101 86.3597C248.334 84.26 245.012 90.4888 248.355 93.6603M253.101 86.3597C253.119 86.3676 253.137 86.3757 253.155 86.3838M332.111 91.0303C335.467 87.8468 332.107 81.583 327.31 83.7538" stroke="black"/>
</g>
</g>
</g>
</g>
</svg>
