<svg width="200" height="169" viewBox="0 0 200 169" fill="none" xmlns="http://www.w3.org/2000/svg">
<path d="M141.601 84.1822C144.425 79.6989 146.551 74.6691 147.786 69.2065C153.622 43.396 137.429 17.741 111.619 11.905C85.8077 6.06902 60.1531 22.2616 54.3171 48.0725C52.8227 54.6826 52.7759 61.2813 53.9624 67.5407L141.601 84.1822Z" fill="#A8E7EF"/>
<path d="M147.785 69.2066C146.553 74.667 144.427 79.6972 141.6 84.1816L128.539 81.7016C131.363 77.2165 133.489 72.1863 134.724 66.7266C140.193 42.5566 126.339 18.5214 103.357 10.7734C106.093 10.9079 108.854 11.2768 111.621 11.9033C137.429 17.7408 153.623 43.3953 147.785 69.2066Z" fill="#70D9E6"/>
<path d="M192.997 83.7645C196.548 65.1142 157.662 42.0432 106.143 32.234C54.6239 22.4248 9.98063 29.592 6.42964 48.2423C2.87865 66.8926 41.7646 89.9636 93.2839 99.7728C144.803 109.582 189.446 102.415 192.997 83.7645Z" fill="#1C96F9"/>
<path d="M38.6185 45.8376C43.1068 45.8376 46.7453 42.1991 46.7453 37.7108C46.7453 33.2225 43.1068 29.584 38.6185 29.584C34.1302 29.584 30.4917 33.2225 30.4917 37.7108C30.4917 42.1991 34.1302 45.8376 38.6185 45.8376Z" fill="#1785F8"/>
<path d="M192.964 83.6155C189.422 102.267 144.785 109.457 93.2582 99.6733C64.655 94.2417 39.9433 84.7224 24.2252 74.1335C39.5305 82.2051 59.9876 89.2013 82.9561 93.563C134.479 103.347 179.119 96.1603 182.662 77.5052C184.239 69.2009 177.404 60.0268 164.784 51.5391C183.839 61.5753 194.928 73.2725 192.964 83.6155Z" fill="#1785F8"/>
<path d="M151.675 92.7796C153.514 83.1207 130.352 70.5968 99.9421 64.8067C69.5316 59.0166 43.3883 62.1529 41.5492 71.8118C39.7102 81.4707 62.8719 93.9946 93.2823 99.7847C123.693 105.575 149.836 102.438 151.675 92.7796Z" fill="#D4F2F6"/>
<path d="M133.895 167.992L30.4103 148.341C28.1382 147.909 26.7895 145.55 27.5701 143.373L56.4167 62.9512C67.2492 61.0253 82.9066 61.4663 99.9021 64.6937C116.898 67.9211 131.627 73.2501 140.999 79.0126L138.358 164.411C138.287 166.722 136.166 168.423 133.895 167.992Z" fill="#D2F0A2"/>
<path d="M140.998 79.0107C131.626 73.2481 116.896 67.9188 99.9013 64.6917C82.9058 61.4643 67.2484 61.0234 56.4158 62.9492L52.7734 73.098C59.671 71.6298 68.8345 71.2167 79.2028 71.9838L68.1799 116.125C67.9986 116.852 68.1132 117.62 68.4985 118.262C68.8838 118.904 69.5083 119.366 70.2345 119.547C70.9608 119.729 71.7293 119.614 72.371 119.229C73.0127 118.843 73.4751 118.219 73.6565 117.493L84.8894 72.5095C89.2967 73.002 93.6834 73.6639 98.0398 74.4938C102.398 75.3188 106.723 76.3112 111.005 77.4688L108.239 98.5289C108.147 99.2686 108.351 100.015 108.807 100.605C109.262 101.194 109.933 101.58 110.672 101.677C111.411 101.774 112.159 101.575 112.751 101.123C113.344 100.671 113.734 100.003 113.836 99.2643L116.489 79.0644C126.417 82.1515 134.791 85.8944 140.668 89.7881L140.998 79.0107Z" fill="#BCEA73"/>
<path d="M133.894 167.989L124.206 166.15L127.11 72.3047C132.486 74.3913 137.189 76.6649 140.998 79.0105L138.357 164.408C138.286 166.72 136.166 168.421 133.894 167.989Z" fill="#BCEA73"/>
<path d="M34.7613 57.2611C35.3425 54.2086 32.9626 51.1912 29.4458 50.5216C25.9289 49.852 22.6068 51.7837 22.0256 54.8362C21.4444 57.8887 23.8242 60.9061 27.3411 61.5757C30.8579 62.2453 34.1801 60.3136 34.7613 57.2611Z" fill="#D4F2F6"/>
<path d="M68.9987 46.392C69.5799 43.3395 67.2001 40.3221 63.6832 39.6525C60.1663 38.9829 56.8442 40.9146 56.263 43.9671C55.6818 47.0196 58.0617 50.037 61.5785 50.7066C65.0954 51.3762 68.4175 49.4444 68.9987 46.392Z" fill="#D4F2F6"/>
<path d="M109.288 50.3724C109.869 47.3199 107.489 44.3026 103.972 43.633C100.456 42.9634 97.1334 44.8951 96.5522 47.9476C95.971 51.0001 98.3508 54.0174 101.868 54.687C105.385 55.3566 108.707 53.4249 109.288 50.3724Z" fill="#D4F2F6"/>
<path d="M176.072 84.1615C176.653 81.109 174.273 78.0916 170.756 77.422C167.239 76.7524 163.917 78.6841 163.336 81.7366C162.755 84.7891 165.135 87.8065 168.652 88.4761C172.168 89.1457 175.491 87.214 176.072 84.1615Z" fill="#D4F2F6"/>
<path d="M148.221 61.472C148.803 58.4195 146.423 55.4022 142.906 54.7326C139.389 54.063 136.067 55.9947 135.486 59.0472C134.904 62.0997 137.284 65.117 140.801 65.7866C144.318 66.4562 147.64 64.5245 148.221 61.472Z" fill="#D4F2F6"/>
<path d="M55.7388 0.826654C55.2094 0.297351 54.4914 0 53.7428 0C52.9942 0 52.2762 0.297351 51.7468 0.826654L50.2432 2.33022L48.7396 0.826654C48.2094 0.301515 47.4929 0.00770478 46.7466 0.00947791C46.0004 0.011251 45.2852 0.308464 44.7575 0.836116C44.2298 1.36377 43.9325 2.07892 43.9307 2.82517C43.9288 3.57141 44.2226 4.28802 44.7477 4.81827L46.2512 6.32184L44.7477 7.82541C44.2226 8.35566 43.9288 9.07227 43.9307 9.81851C43.9325 10.5648 44.2298 11.2799 44.7575 11.8076C45.2852 12.3352 46.0004 12.6324 46.7466 12.6342C47.4929 12.636 48.2094 12.3422 48.7396 11.817L50.2432 10.3135L51.7468 11.817C52.298 12.3683 53.0206 12.6437 53.7428 12.6437C54.465 12.6437 55.1875 12.3679 55.7388 11.817C56.268 11.2877 56.5654 10.5698 56.5654 9.82121C56.5654 9.07265 56.268 8.35475 55.7388 7.82541L54.2352 6.32184L55.7388 4.81827C56.268 4.28893 56.5654 3.57102 56.5654 2.82246C56.5654 2.0739 56.268 1.356 55.7388 0.826654ZM150.479 12.4738C151.03 13.0251 151.752 13.3005 152.475 13.3005C153.197 13.3005 153.919 13.0247 154.471 12.4738C155 11.9445 155.297 11.2266 155.297 10.478C155.297 9.72946 155 9.01156 154.471 8.48221L152.967 6.97865L154.471 5.47508C154.996 4.94483 155.289 4.22822 155.288 3.48197C155.286 2.73573 154.988 2.02058 154.461 1.49292C153.933 0.96527 153.218 0.668057 152.472 0.666284C151.725 0.664511 151.009 0.958322 150.479 1.48346L148.975 2.98666L147.472 1.48346C146.942 0.958322 146.225 0.664511 145.479 0.666284C144.733 0.668057 144.018 0.96527 143.49 1.49292C142.962 2.02058 142.665 2.73573 142.663 3.48197C142.661 4.22822 142.955 4.94483 143.48 5.47508L144.984 6.97865L143.48 8.48221C142.955 9.01246 142.661 9.72907 142.663 10.4753C142.665 11.2216 142.962 11.9367 143.49 12.4644C144.018 12.992 144.733 13.2892 145.479 13.291C146.225 13.2928 146.942 12.999 147.472 12.4738L148.975 10.9706L150.479 12.4738Z" fill="#64B9FC"/>
<path d="M159.966 127.764L161.469 126.26C161.994 125.73 162.288 125.013 162.286 124.267C162.284 123.521 161.987 122.805 161.459 122.278C160.932 121.75 160.216 121.453 159.47 121.451C158.724 121.449 158.007 121.743 157.477 122.268L155.974 123.772L154.471 122.268C153.938 121.754 153.225 121.469 152.485 121.475C151.744 121.481 151.036 121.778 150.512 122.301C149.989 122.825 149.692 123.533 149.685 124.274C149.679 125.014 149.964 125.728 150.479 126.26L151.982 127.764L150.479 129.267C149.954 129.797 149.66 130.514 149.662 131.26C149.664 132.006 149.961 132.722 150.489 133.249C151.016 133.777 151.731 134.074 152.478 134.076C153.224 134.078 153.941 133.784 154.471 133.259L155.974 131.756L157.477 133.259C157.739 133.521 158.05 133.729 158.393 133.871C158.735 134.013 159.102 134.086 159.473 134.085C160.031 134.085 160.577 133.92 161.041 133.61C161.505 133.3 161.867 132.859 162.081 132.343C162.294 131.827 162.35 131.26 162.241 130.712C162.133 130.165 161.864 129.662 161.469 129.267L159.966 127.764Z" fill="#A8E7EF"/>
<path d="M166.531 39.2477C171.019 39.2477 174.658 35.6092 174.658 31.1209C174.658 26.6326 171.019 22.9941 166.531 22.9941C162.042 22.9941 158.404 26.6326 158.404 31.1209C158.404 35.6092 162.042 39.2477 166.531 39.2477Z" fill="#A8E7EF"/>
<path d="M174.657 31.1199C174.657 35.6097 171.017 39.2492 166.531 39.2492C165.081 39.2523 163.656 38.8636 162.409 38.1241C165.599 37.3887 167.976 34.5328 167.976 31.1199C167.976 27.7105 165.603 24.851 162.413 24.1156C163.66 23.3789 165.083 22.9915 166.531 22.9942C171.017 22.9938 174.657 26.6333 174.657 31.1199Z" fill="#70D9E6"/>
<path d="M38.6185 39.2477C43.1068 39.2477 46.7453 35.6092 46.7453 31.1209C46.7453 26.6326 43.1068 22.9941 38.6185 22.9941C34.1302 22.9941 30.4917 26.6326 30.4917 31.1209C30.4917 35.6092 34.1302 39.2477 38.6185 39.2477Z" fill="#BCEA73"/>
<path d="M46.7445 31.1199C46.7445 35.6097 43.1051 39.2492 38.6189 39.2492C37.1685 39.2523 35.7442 38.8636 34.4965 38.1241C37.6866 37.3887 40.0636 34.5328 40.0636 31.1199C40.0636 27.7105 37.6906 24.851 34.5005 24.1156C35.7478 23.3789 37.1705 22.9915 38.6192 22.9942C43.1051 22.9938 46.7445 26.6333 46.7445 31.1199Z" fill="#99D53B"/>
</svg>
