<svg width="179" height="172" viewBox="0 0 179 172" fill="none" xmlns="http://www.w3.org/2000/svg">
<g filter="url(#filter0_d_686_147)">
<path d="M114.635 119.991C115.983 120.564 117.432 120.861 118.896 120.862C120.282 120.862 121.669 120.595 122.992 120.06C124.323 119.525 125.535 118.732 126.558 117.726C127.581 116.72 128.394 115.521 128.95 114.199C130.088 111.514 130.111 108.545 129.019 105.842C127.926 103.139 125.845 101.023 123.16 99.8842C121.841 99.3213 120.423 99.0251 118.989 99.0128C117.555 99.0006 116.132 99.2725 114.803 99.8128C113.472 100.348 112.26 101.141 111.238 102.147C110.215 103.153 109.402 104.352 108.846 105.674C107.717 108.34 107.693 111.346 108.779 114.03C109.864 116.714 111.97 118.858 114.635 119.991ZM113.086 107.471C113.408 106.707 113.877 106.015 114.469 105.433C115.06 104.852 115.76 104.394 116.529 104.086C117.298 103.773 118.12 103.616 118.949 103.623C119.778 103.631 120.598 103.802 121.36 104.127C122.911 104.784 124.114 106.008 124.746 107.571C125.377 109.133 125.364 110.848 124.704 112.401C124.048 113.952 122.824 115.155 121.261 115.787C119.698 116.418 117.984 116.405 116.433 115.748C114.893 115.092 113.676 113.853 113.049 112.301C112.422 110.75 112.435 109.013 113.086 107.471ZM85.1368 107.483C86.485 108.057 87.9351 108.354 89.4005 108.356C90.7857 108.356 92.1731 108.089 93.496 107.554C94.8271 107.02 96.039 106.227 97.0616 105.222C98.0842 104.216 98.8973 103.018 99.4538 101.696C100.581 99.0291 100.604 96.0243 99.519 93.3403C98.4336 90.6564 96.3281 88.5125 93.6643 87.3788C90.9977 86.2513 87.9928 86.2279 85.309 87.3138C82.6252 88.3997 80.4819 90.5061 79.3496 93.1706C78.2213 95.8362 78.197 98.8406 79.2821 101.524C80.3672 104.208 82.4729 106.351 85.1368 107.483ZM83.588 94.9683C84.2443 93.4296 85.4832 92.2135 87.0337 91.586C88.5843 90.9584 90.3203 90.9705 91.862 91.6195C95.0656 92.9793 96.5682 96.6899 95.2085 99.8935C94.8871 100.658 94.4172 101.35 93.8262 101.931C93.2351 102.513 92.5346 102.971 91.7652 103.279C90.9971 103.591 90.1748 103.749 89.3457 103.741C88.5166 103.734 87.6971 103.563 86.9345 103.238C85.3958 102.583 84.1795 101.345 83.5522 99.7946C82.9249 98.2445 82.9378 96.5089 83.588 94.9683ZM55.6386 94.9775C56.9819 95.5485 58.4265 95.8432 59.8862 95.8441C62.0328 95.8447 64.1321 95.2137 65.9226 94.0297C67.7131 92.8458 69.1157 91.1611 69.9556 89.1857C71.0941 86.5007 71.1171 83.5322 70.0247 80.8288C68.9323 78.1253 66.8511 76.0096 64.1638 74.871C61.4788 73.7325 58.5103 73.7071 55.8068 74.8019C53.1034 75.8966 50.9876 77.9755 49.8491 80.6628C48.7106 83.3478 48.6852 86.3163 49.78 89.0198C50.8747 91.7232 52.9559 93.8389 55.6386 94.9775ZM54.0944 82.4605C54.5783 81.3194 55.3871 80.3458 56.4203 79.661C57.4534 78.9762 58.6652 78.6105 59.9046 78.6093C60.739 78.6093 61.5756 78.7775 62.3661 79.114C63.9172 79.7709 65.1202 80.9947 65.7517 82.5573C66.3832 84.1199 66.3694 85.8346 65.7126 87.3857C65.3912 88.1504 64.9211 88.8437 64.3296 89.4253C63.7381 90.0069 63.037 90.4652 62.267 90.7737C61.4992 91.0871 60.6768 91.2448 59.8475 91.2377C59.0182 91.2306 58.1986 91.0587 57.4363 90.7322C56.6722 90.4108 55.9795 89.9409 55.3983 89.3499C54.8172 88.7588 54.3591 88.0583 54.0506 87.2889C53.7386 86.5211 53.5819 85.6991 53.5894 84.8703C53.5969 84.0416 53.7686 83.2225 54.0944 82.4605ZM69.52 39.6663C65.7752 43.4872 62.9613 48.1198 61.2967 53.2043C61.1051 53.785 61.152 54.418 61.4271 54.9641C61.7022 55.5102 62.183 55.9247 62.7637 56.1163C63.3443 56.3079 63.9774 56.261 64.5235 55.9859C65.0696 55.7108 65.484 55.23 65.6757 54.6494C67.1222 50.2321 69.5661 46.2071 72.818 42.886C73.0339 42.6704 73.2048 42.4141 73.3208 42.1319C73.4368 41.8497 73.4956 41.5473 73.4939 41.2422C73.4921 40.9371 73.4298 40.6354 73.3106 40.3546C73.1913 40.0738 73.0175 39.8194 72.7992 39.6063C72.5809 39.3932 72.3224 39.2255 72.0388 39.1131C71.7552 39.0006 71.4521 38.9456 71.147 38.9511C70.842 38.9567 70.5411 39.0228 70.2618 39.1456C69.9825 39.2683 69.7303 39.4453 69.52 39.6663ZM116.523 30.5488C104.324 25.3747 90.7373 26.2275 79.2574 32.8812C78.7284 33.1874 78.3427 33.6913 78.1851 34.2819C78.0276 34.8725 78.1111 35.5016 78.4174 36.0306C78.7236 36.5597 79.2275 36.9454 79.8181 37.1029C80.4087 37.2605 81.0377 37.1769 81.5668 36.8707C91.7859 30.9475 103.867 30.1939 114.723 34.7941C115.286 35.0328 115.92 35.0381 116.487 34.8088C117.054 34.5795 117.507 34.1344 117.745 33.5715C117.984 33.0085 117.989 32.3738 117.76 31.8069C117.531 31.2401 117.086 30.7875 116.523 30.5488Z" fill="#00E0FF"/>
<path d="M140.991 142.291C143.948 142.288 146.876 141.715 149.615 140.602C152.419 139.477 154.971 137.807 157.125 135.689C159.279 133.571 160.991 131.046 162.162 128.262C164.562 122.606 164.612 116.356 162.31 110.663C160.007 104.97 155.624 100.513 149.97 98.1162L149.68 97.9918L152.084 92.3221C157.882 78.6459 158.007 63.5292 152.436 49.7584C146.866 35.9877 136.266 25.2108 122.588 19.4098C94.3573 7.44363 61.6486 20.6728 49.6755 48.9034L47.274 54.5707L46.9813 54.4462C44.2036 53.2594 41.218 52.6355 38.1975 52.6106C35.177 52.5856 32.1816 53.1602 29.3847 54.301C26.5814 55.4262 24.029 57.0961 21.8753 59.2141C19.7217 61.3322 18.0094 63.8564 16.8377 66.6406C15.6505 69.4185 15.0261 72.4043 15.0008 75.4252C14.9755 78.4461 15.5497 81.442 16.6902 84.2395C17.8154 87.0428 19.4853 89.5951 21.6033 91.7488C23.7214 93.9025 26.2456 95.6147 29.0298 96.7864L38.6704 100.875L23.6321 110.221C23.3685 110.377 23.1387 110.585 22.9564 110.831C22.774 111.078 22.6427 111.358 22.57 111.656C22.4974 111.954 22.4849 112.263 22.5333 112.566C22.5817 112.869 22.6901 113.159 22.852 113.419C23.0139 113.68 23.2262 113.905 23.4763 114.082C23.7264 114.26 24.0095 114.385 24.3088 114.452C24.6081 114.518 24.9176 114.525 25.2193 114.47C25.5211 114.416 25.8089 114.301 26.0659 114.134L43.75 103.143C43.7846 103.122 43.8031 103.085 43.8353 103.062L117.211 134.174C117.218 134.213 117.204 134.252 117.213 134.291L121.608 154.642C121.737 155.24 122.098 155.762 122.612 156.094C123.125 156.425 123.75 156.54 124.348 156.411C124.945 156.282 125.468 155.921 125.799 155.408C126.131 154.894 126.245 154.269 126.116 153.672L122.378 136.365L132.019 140.454C134.856 141.663 137.907 142.288 140.991 142.291ZM53.9185 50.7011C64.8959 24.8098 94.892 12.6731 120.788 23.6528C133.33 28.9698 143.052 38.8548 148.161 51.4847C153.271 64.1146 153.155 77.9798 147.836 90.5221L145.432 96.1918L51.5147 56.3707L53.9185 50.7011ZM20.9609 82.5109C20.049 80.2744 19.5898 77.8792 19.61 75.464C19.6302 73.0487 20.1293 70.6615 21.0784 68.4405C25.0334 59.1087 35.8471 54.7366 45.1813 58.6916L148.168 102.357C152.69 104.274 156.193 107.838 158.035 112.389C159.876 116.941 159.835 121.938 157.917 126.46C156.98 128.686 155.611 130.704 153.889 132.398C152.167 134.091 150.126 135.427 147.885 136.326C145.648 137.238 143.253 137.697 140.838 137.677C138.422 137.657 136.035 137.158 133.814 136.209L30.8274 92.5434C28.6013 91.6065 26.583 90.2374 24.8894 88.5153C23.1958 86.7932 21.8606 84.7524 20.9609 82.5109Z" fill="#00E0FF"/>
</g>
<defs>
<filter id="filter0_d_686_147" x="0" y="0" width="179" height="171.463" filterUnits="userSpaceOnUse" color-interpolation-filters="sRGB">
<feFlood flood-opacity="0" result="BackgroundImageFix"/>
<feColorMatrix in="SourceAlpha" type="matrix" values="0 0 0 0 0 0 0 0 0 0 0 0 0 0 0 0 0 0 127 0" result="hardAlpha"/>
<feOffset/>
<feGaussianBlur stdDeviation="7.5"/>
<feColorMatrix type="matrix" values="0 0 0 0 0 0 0 0 0 0.878431 0 0 0 0 1 0 0 0 1 0"/>
<feBlend mode="normal" in2="BackgroundImageFix" result="effect1_dropShadow_686_147"/>
<feBlend mode="normal" in="SourceGraphic" in2="effect1_dropShadow_686_147" result="shape"/>
</filter>
</defs>
</svg>
