<svg width="235" height="235" viewBox="0 0 235 235" fill="none" xmlns="http://www.w3.org/2000/svg">
<g filter="url(#filter0_d_25_118)">
<path d="M147 117.5C147 133.792 133.792 147 117.5 147C101.208 147 88 133.792 88 117.5C88 101.208 101.208 88 117.5 88C133.792 88 147 101.208 147 117.5Z" fill="#112827"/>
<path d="M147 117.5C147 133.792 133.792 147 117.5 147C101.208 147 88 133.792 88 117.5C88 101.208 101.208 88 117.5 88C133.792 88 147 101.208 147 117.5Z" fill="url(#paint0_radial_25_118)" fill-opacity="0.75"/>
<path d="M147 117.5C147 133.792 133.792 147 117.5 147C101.208 147 88 133.792 88 117.5C88 101.208 101.208 88 117.5 88C133.792 88 147 101.208 147 117.5Z" fill="url(#paint1_radial_25_118)" fill-opacity="0.9"/>
<path d="M147 117.5C147 133.792 133.792 147 117.5 147C101.208 147 88 133.792 88 117.5C88 101.208 101.208 88 117.5 88C133.792 88 147 101.208 147 117.5Z" fill="url(#paint2_radial_25_118)"/>
<path d="M146.5 117.5C146.5 133.516 133.516 146.5 117.5 146.5C101.484 146.5 88.5 133.516 88.5 117.5C88.5 101.484 101.484 88.5 117.5 88.5C133.516 88.5 146.5 101.484 146.5 117.5Z" stroke="#3D56CB"/>
</g>
<defs>
<filter id="filter0_d_25_118" x="0" y="0" width="235" height="235" filterUnits="userSpaceOnUse" color-interpolation-filters="sRGB">
<feFlood flood-opacity="0" result="BackgroundImageFix"/>
<feColorMatrix in="SourceAlpha" type="matrix" values="0 0 0 0 0 0 0 0 0 0 0 0 0 0 0 0 0 0 127 0" result="hardAlpha"/>
<feOffset/>
<feGaussianBlur stdDeviation="44"/>
<feComposite in2="hardAlpha" operator="out"/>
<feColorMatrix type="matrix" values="0 0 0 0 0.254902 0 0 0 0 0.447059 0 0 0 0 0.501961 0 0 0 1 0"/>
<feBlend mode="normal" in2="BackgroundImageFix" result="effect1_dropShadow_25_118"/>
<feBlend mode="normal" in="SourceGraphic" in2="effect1_dropShadow_25_118" result="shape"/>
</filter>
<radialGradient id="paint0_radial_25_118" cx="0" cy="0" r="1" gradientUnits="userSpaceOnUse" gradientTransform="translate(115.854 117.361) rotate(86.8211) scale(29.6848 29.6585)">
<stop stop-color="white"/>
<stop offset="1" stop-opacity="0"/>
</radialGradient>
<radialGradient id="paint1_radial_25_118" cx="0" cy="0" r="1" gradientUnits="userSpaceOnUse" gradientTransform="translate(105.795 117.361) rotate(145.005) scale(55.9365 53.9348)">
<stop stop-color="#9593FC"/>
<stop offset="1" stop-opacity="0"/>
</radialGradient>
<radialGradient id="paint2_radial_25_118" cx="0" cy="0" r="1" gradientUnits="userSpaceOnUse" gradientTransform="translate(89.0303 125.517) rotate(34.7986) scale(38.1095 54.4895)">
<stop stop-color="#3749E6"/>
<stop offset="1" stop-color="#0AC5FB" stop-opacity="0"/>
</radialGradient>
</defs>
</svg>
